<?xml version="1.0" encoding="UTF-8"?>
<svg id="Camada_2" data-name="Camada 2" xmlns="http://www.w3.org/2000/svg" viewBox="0 0 1147.48 665.51">
  <defs>
    <style>
      /* Light blue for the X mark */
      .cls-1 { fill: #9fd3ff; }
      /* Make all logo shapes white by default */
      path, polygon { fill: #ffffff; }
    </style>
  </defs>
  <g id="Camada_1-2" data-name="Camada 1">
    <g>
      <g>
        <path class="cls-1" d="M357.06,614.94l231.16-232.49,3.87,3.26c13.13,11.06,26.06,22.3,38.89,33.65,11.49,10.2,22.87,20.52,34.17,30.91l19.1-.7,23.29-.63c4.11-.13,8.23-.2,12.34-.27-1.95-1.96-3.94-3.88-5.89-5.84-9.95-9.89-19.73-19.96-29.56-29.99-9.82-10.03-19.49-20.21-29.21-30.33-9.61-10.23-19.3-20.39-28.79-30.74l-8.95-9.76L972.77,0l-318.81,342.21c7.12,6.81,14.21,13.65,21.31,20.48,10.01,9.84,20.08,19.62,29.99,29.56,9.91,9.94,19.86,19.84,29.64,29.9,9.85,10,19.61,20.09,29.31,30.23l24.68,25.78h-128.26l-7.9-8.22c-11.45-12.71-22.8-25.53-34.02-38.46-10.29-11.92-20.49-23.94-30.54-36.1l-231.11,219.55Z"/>
        <path class="cls-1" d="M757.47,94.69l-185.56,203.72-3.87-3.26c-13.13-11.06-26.06-22.3-38.89-33.65-11.49-10.2-22.87-20.52-34.17-30.91l-19.1.7-23.29.63c-4.11.13-8.23.2-12.34.27,1.95,1.96,3.94,3.88,5.89,5.84,9.95,9.89,19.73,19.96,29.56,29.99,9.82,10.03,19.49,20.21,29.21,30.33,9.61,10.23,19.3,20.39,28.79,30.74l8.95,9.76-359.21,326.65,322.74-326.86c-7.12-6.81-14.21-13.65-21.31-20.48-10.01-9.84-20.08-19.62-29.99-29.56-9.91-9.94-19.86-19.84-29.64-29.9-9.85-10-19.61-20.09-29.31-30.23l-24.68-25.78h128.26l7.9,8.22c11.45,12.71,22.8,25.53,34.02,38.46,10.29,11.92,20.49,23.94,30.54,36.1l185.5-190.78Z"/>
      </g>
      <polygon points="578.77 350.31 578.77 350.31 552.89 350.31 572.59 368.15 534.69 477.67 577.44 477.67 621.52 350.31 578.77 350.31"/>
      <path d="M875.9,378.96h88.13l10.66-30.78h-116.15s0,0,0,0h-38.39l18.02,16.32-30.27,87.45c-4.05,11.7,5.6,23.59,19.13,23.59h103.58l10.66-30.78h-88.13l3.59-10.39-10.6-9.6h27.44,0s64.8,0,64.8,0l8.93-25.83h-78.31l2.6-7.53-13.71-12.42h18.01v-.04Z"/>
      <path d="M791.43,358.71c-4.92-5.6-12.4-8.4-22.44-8.4h-103.4s-24.88,0-24.88,0l18.94,17.15-38.14,110.21h107.76c10.03,0,18.73-2.8,26.1-8.4,7.36-5.6,12.5-12.47,15.42-20.61l23.87-69.34c2.77-8.14,1.69-15-3.23-20.61ZM750.45,383.39l-21.17,61.2c-.46,1.53-1.63,2.3-3.52,2.3h-50.83l17.86-51.66-15.57-14.1h20.45v-.04h50.84c1.89,0,2.54.77,1.94,2.3Z"/>
      <path d="M534.37,368.17c-.95-5.31-3.78-9.61-8.52-12.91-4.73-3.3-10.81-4.95-18.22-4.95h-132.3l19.02,17.22-38.12,110.14h42.75l12.49-36.44h68.93c10.03,0,18.76-2.83,26.19-8.49,7.42-5.66,12.53-12.5,15.32-20.52l11.38-32.9c1.36-3.77,1.72-7.49,1.07-11.14ZM489.09,383.39l-9.08,26.18c-.6,1.53-1.77,2.3-3.52,2.3h-54.75l6.21-17.93-14.14-12.8h18.57v-.04h54.77c1.16,0,1.83.47,2,1.41.06.35.04.65-.06.88Z"/>
      <path d="M175.6,358.8c-4.93-5.66-12.42-8.49-22.45-8.49H18.64l19.37,17.54L0,477.67h42.76l14.38-41.75h20.72l22.26,41.75h49.08l-26.41-41.75h.87c12.36,0,22.36-2.86,29.99-8.58,7.63-5.72,12.86-12.53,15.67-20.43l9.48-27.59c2.79-8.02,1.72-14.86-3.22-20.52ZM134.6,383.39l-7.19,20.87c-.46,1.53-1.63,2.3-3.52,2.3h-56.5l4.32-12.54-14.24-12.89h18.68v-.04h56.51c1.89,0,2.54.77,1.94,2.3Z"/>
      <polygon points="315.05 350.31 272.95 350.31 272.95 350.31 247.44 350.31 261.74 363.27 162.78 477.67 208.8 477.67 266.94 408.78 278.48 395.11 278.52 395.06 287.47 445.36 247.44 445.36 283.12 477.67 293.22 477.67 337.72 477.67 315.05 350.31"/>
      <g>
        <path d="M1066.61,490.14c-1.32-1.51-3.34-2.26-6.04-2.26h-31.62l2.69,2.44c-1.88,1.47-3.18,3.26-3.9,5.37l-6.42,18.66c-.78,2.19-.5,4.04.84,5.54,1.34,1.51,3.37,2.26,6.07,2.26h21.66c2.7,0,5.04-.75,7.02-2.26,1.98-1.51,3.36-3.36,4.15-5.54l6.42-18.66c.74-2.19.46-4.04-.87-5.54ZM1055.59,496.78l-5.7,16.47c-.12.41-.44.62-.95.62h-15.2c-.51,0-.7-.21-.58-.62l4.63-13.38-4.08-3.7h6.05s.06-.01.1-.01h15.2c.51,0,.68.21.52.62Z"/>
        <polygon points="1112.39 487.88 1093.53 507.87 1087.45 487.88 1077.7 487.88 1077.7 487.88 1071.01 487.88 1076.11 492.5 1065.84 522.15 1077.35 522.15 1082.03 508.54 1085.37 518.44 1094.41 518.44 1104.67 508.49 1099.94 522.15 1111.45 522.15 1123.31 487.88 1112.39 487.88"/>
        <polygon points="908.66 513.87 917.65 487.88 906.14 487.88 906.14 487.88 899.55 487.88 904.57 492.43 894.28 522.15 925.56 522.15 928.43 513.87 908.66 513.87"/>
        <path d="M868.85,496.16h23.71l2.87-8.28h-31.25s0,0,0,0h-10.33l4.85,4.39-8.14,23.53c-1.09,3.15,1.51,6.35,5.15,6.35h27.87l2.87-8.28h-23.71l.97-2.8-2.85-2.58h7.38,0s17.43,0,17.43,0l2.4-6.95h-21.07l.7-2.02-3.69-3.34h4.85Z"/>
        <path d="M948.72,496.16h23.71l2.87-8.28h-31.25s0,0,0,0h-10.33l4.85,4.39-8.14,23.53c-1.09,3.15,1.51,6.35,5.15,6.35h27.87l2.87-8.28h-23.71l.97-2.8-2.85-2.58h7.38,0s17.43,0,17.43,0l2.4-6.95h-21.07l.7-2.02-3.69-3.34h4.85Z"/>
        <path d="M1019.72,489.22c-.78-.89-1.96-1.33-3.52-1.33h-26.23c-.11,0-.21,0-.31.01h.01s-11.81-.01-11.81-.01l3.98,3.6c-1.09,1.23-1.92,2.62-2.45,4.2l-6.42,18.66c-.78,2.19-.5,4.04.84,5.54,1.34,1.51,3.37,2.26,6.07,2.26h24.47c1.56,0,3.05-.44,4.46-1.33,1.41-.89,2.33-1.97,2.77-3.24l2.63-7.66h-11.5l-1.24,3.57c-.07.25-.27.38-.58.38h-15.49c-.51,0-.7-.21-.58-.62l4.67-13.5-3.95-3.57h5.88s.06-.01.1-.01h15.49c.31,0,.41.13.3.38l-1.18,3.57h11.5l2.63-7.66c.44-1.27.27-2.35-.52-3.24Z"/>
        <polygon points="818.77 487.88 813.7 487.88 806.96 487.88 812.09 492.53 810.83 496.16 825.03 496.16 816.04 522.15 827.55 522.15 835.26 499.86 831.2 496.17 836.53 496.17 836.54 496.16 850.74 496.16 853.61 487.88 818.77 487.88"/>
      </g>
      <polygon points="1147.48 349.31 1095.14 349.31 1064.02 377.57 1045.16 349.31 994.97 349.31 994.97 349.31 982.88 349.31 1004.07 368.49 1029.41 403.66 951.62 474.55 1003.53 474.55 1045.33 431.67 1075.34 474.54 1125.11 474.54 1080.86 404.71 1147.48 349.31"/>
    </g>
  </g>
</svg>